<svg width="45" height="45" viewBox="0 0 45 45" fill="none" xmlns="http://www.w3.org/2000/svg">
<rect width="45" height="45" rx="22.5" fill="#4C4F54"/>
<path d="M12 15.75H12.1065C12.2702 16.3932 12.6435 16.9635 13.1675 17.3708C13.6915 17.7782 14.3363 17.9993 15 17.9993C15.6637 17.9993 16.3085 17.7782 16.8325 17.3708C17.3565 16.9635 17.7298 16.3932 17.8935 15.75H33C33.1989 15.75 33.3897 15.671 33.5303 15.5303C33.671 15.3897 33.75 15.1989 33.75 15C33.75 14.8011 33.671 14.6103 33.5303 14.4697C33.3897 14.329 33.1989 14.25 33 14.25H17.8935C17.7298 13.6068 17.3565 13.0365 16.8325 12.6292C16.3085 12.2218 15.6637 12.0007 15 12.0007C14.3363 12.0007 13.6915 12.2218 13.1675 12.6292C12.6435 13.0365 12.2702 13.6068 12.1065 14.25H12C11.8011 14.25 11.6103 14.329 11.4697 14.4697C11.329 14.6103 11.25 14.8011 11.25 15C11.25 15.1989 11.329 15.3897 11.4697 15.5303C11.6103 15.671 11.8011 15.75 12 15.75ZM15 13.5C15.2967 13.5 15.5867 13.588 15.8334 13.7528C16.08 13.9176 16.2723 14.1519 16.3858 14.426C16.4994 14.7001 16.5291 15.0017 16.4712 15.2926C16.4133 15.5836 16.2704 15.8509 16.0607 16.0607C15.8509 16.2704 15.5836 16.4133 15.2926 16.4712C15.0017 16.5291 14.7001 16.4994 14.426 16.3858C14.1519 16.2723 13.9176 16.08 13.7528 15.8334C13.588 15.5867 13.5 15.2967 13.5 15C13.5 14.6022 13.658 14.2206 13.9393 13.9393C14.2206 13.658 14.6022 13.5 15 13.5ZM33 21.75H32.8935C32.7298 21.1068 32.3565 20.5365 31.8325 20.1292C31.3085 19.7218 30.6637 19.5007 30 19.5007C29.3363 19.5007 28.6915 19.7218 28.1675 20.1292C27.6435 20.5365 27.2702 21.1068 27.1065 21.75H12C11.8011 21.75 11.6103 21.829 11.4697 21.9697C11.329 22.1103 11.25 22.3011 11.25 22.5C11.25 22.6989 11.329 22.8897 11.4697 23.0303C11.6103 23.171 11.8011 23.25 12 23.25H27.1065C27.2702 23.8932 27.6435 24.4635 28.1675 24.8708C28.6915 25.2782 29.3363 25.4993 30 25.4993C30.6637 25.4993 31.3085 25.2782 31.8325 24.8708C32.3565 24.4635 32.7298 23.8932 32.8935 23.25H33C33.1989 23.25 33.3897 23.171 33.5303 23.0303C33.671 22.8897 33.75 22.6989 33.75 22.5C33.75 22.3011 33.671 22.1103 33.5303 21.9697C33.3897 21.829 33.1989 21.75 33 21.75ZM30 24C29.7033 24 29.4133 23.912 29.1666 23.7472C28.92 23.5824 28.7277 23.3481 28.6142 23.074C28.5006 22.7999 28.4709 22.4983 28.5288 22.2074C28.5867 21.9164 28.7296 21.6491 28.9393 21.4393C29.1491 21.2296 29.4164 21.0867 29.7074 21.0288C29.9983 20.9709 30.2999 21.0006 30.574 21.1142C30.8481 21.2277 31.0824 21.42 31.2472 21.6666C31.412 21.9133 31.5 22.2033 31.5 22.5C31.5 22.8978 31.342 23.2794 31.0607 23.5607C30.7794 23.842 30.3978 24 30 24ZM33 29.25H25.3935C25.2298 28.6068 24.8565 28.0365 24.3325 27.6292C23.8085 27.2218 23.1637 27.0007 22.5 27.0007C21.8363 27.0007 21.1915 27.2218 20.6675 27.6292C20.1435 28.0365 19.7702 28.6068 19.6065 29.25H12C11.8011 29.25 11.6103 29.329 11.4697 29.4697C11.329 29.6103 11.25 29.8011 11.25 30C11.25 30.1989 11.329 30.3897 11.4697 30.5303C11.6103 30.671 11.8011 30.75 12 30.75H19.6065C19.7702 31.3932 20.1435 31.9635 20.6675 32.3708C21.1915 32.7782 21.8363 32.9993 22.5 32.9993C23.1637 32.9993 23.8085 32.7782 24.3325 32.3708C24.8565 31.9635 25.2298 31.3932 25.3935 30.75H33C33.1989 30.75 33.3897 30.671 33.5303 30.5303C33.671 30.3897 33.75 30.1989 33.75 30C33.75 29.8011 33.671 29.6103 33.5303 29.4697C33.3897 29.329 33.1989 29.25 33 29.25ZM22.5 31.5C22.2033 31.5 21.9133 31.412 21.6666 31.2472C21.42 31.0824 21.2277 30.8481 21.1142 30.574C21.0006 30.2999 20.9709 29.9983 21.0288 29.7074C21.0867 29.4164 21.2296 29.1491 21.4393 28.9393C21.6491 28.7296 21.9164 28.5867 22.2074 28.5288C22.4983 28.4709 22.7999 28.5007 23.074 28.6142C23.3481 28.7277 23.5824 28.92 23.7472 29.1666C23.912 29.4133 24 29.7033 24 30C24 30.3978 23.842 30.7794 23.5607 31.0607C23.2794 31.342 22.8978 31.5 22.5 31.5Z" fill="white"/>
</svg>
